<svg xmlns="http://www.w3.org/2000/svg" viewBox="0 0 32 32"><path fill="#607d95" d="M27.9 7.6l-2.8 2.8-2.8-.7-.7-2.8 2.8-2.8L23 2.7l-3.7 3.7.9 3.3-4.6 4.6 2.1 2.1-1.4 1.4-2.1-2.1-4.5 4.5-3.3-.9L2.7 23l1.4 1.4 2.8-2.8 2.8.7.7 2.8-2.8 2.8L9 29.3l3.7-3.7-.9-3.3 10.5-10.5 3.3.9L29.3 9z"/><path fill="#4b6c85" d="M27.9 7.6l-2.8 2.8-2.8-.7-3.9 4c-.4.4-1 .4-1.4 0l-.4-.4-1 1 1.1 1.1 1 1-1.4 1.4-1-1-1.1-1.1-1 1 .4.4c.4.4.4 1 0 1.4l-3.9 3.8.7 2.8-2.8 2.8L9 29.3l3.7-3.7-.9-3.3 5.9-5.9 1-1 3.5-3.5 3.3.9L29.3 9l-1.4-1.4z"/><path fill="#b0c4da" d="M5.1 11.1h14v2h-14z" transform="rotate(45.001 12.05 12.136)"/><path fill="#99b5ce" d="M16.8 15.5l-.8.8-9-9-.6.6 10.4 10.4.6-.7.8-.8z"/><path fill="#b0c4da" d="M5 7.9L2.9 5.8 5.7 3l2.1 2.1c.4.4.4 1 0 1.4L6.4 7.9c-.4.4-1 .4-1.4 0z"/><path fill="#99b5ce" d="M6 6.9L3.9 4.8l-1 1L5 7.9c.4.4 1 .4 1.4 0l1-1c-.4.4-1 .4-1.4 0z"/><path fill="#ed5c23" d="M20.5 17.8c-.4-.4-.4-1 0-1.4l-1.4 1.4-.7.7-2.1 2.1c.4-.4 1-.4 1.4 0 .4.4.4 1 0 1.4l2.1-2.1.7-.7 1.4-1.4c-.3.4-1 .4-1.4 0z"/><path fill="#f47321" d="M24.1 28.4L17.7 22l4.2-4.2 6.4 6.4c.8.8.8 2 0 2.8l-1.4 1.4c-.8.8-2 .8-2.8 0z"/><path fill="#f47321" d="M14.7 16.8h6v2h-6z" transform="rotate(-45.001 17.707 17.793)"/><path fill="#e55123" d="M19.3 20.5c.2-.4.2-.9-.2-1.2-.4-.4-1-.4-1.4 0l2.1-2.1.5-.5c0-.1.1-.2.2-.2l-1.4 1.4-.7.7-2.1 2.1c.4-.4 1-.4 1.4 0 .4.4.4 1 0 1.4l1.6-1.6z"/><path fill="#ed5c23" d="M25.5 27.1l-6.4-6.4-1.4 1.3 6.4 6.4c.8.8 2 .8 2.8 0l1.1-1.1c-.8.5-1.8.4-2.5-.2zM16.3 17.9v-.1l-1.4 1.4 1.4 1.4 1.4-1.4z"/><path fill="#004463" d="M25.5 27.5c-.1 0-.3 0-.4-.1l-4.9-5c-.2-.2-.2-.5 0-.7.2-.2.5-.2.7 0l4.9 5c.2.2.2.5 0 .7-.1 0-.2.1-.3.1zM26.9 26.1c-.1 0-.3 0-.4-.1l-4.9-5c-.2-.2-.2-.5 0-.7.2-.2.5-.2.7 0l4.9 5c.2.2.2.5 0 .7-.1 0-.2.1-.3.1z"/></svg>