<svg xmlns="http://www.w3.org/2000/svg" enable-background="new 0 0 32 32" viewBox="0 0 32 32"><path d="M21.9668,4.71338c-0.75391-0.354-1.64355-0.03076-1.99609,0.71924c-0.35254,0.74951-0.03027,1.64307,0.71875,1.99561c3.86719,1.81836,6.36523,5.75,6.36523,10.01709C27.05469,23.54102,22.0957,28.5,16,28.5S4.94531,23.54102,4.94531,17.44531c0-4.26709,2.49805-8.19873,6.36523-10.01709c0.74902-0.35254,1.07129-1.24609,0.71875-1.99561s-1.24414-1.07227-1.99609-0.71924c-4.91309,2.31055-8.08789,7.30811-8.08789,12.73193C1.94531,25.19531,8.25,31.5,16,31.5s14.05469-6.30469,14.05469-14.05469C30.05469,12.02148,26.87988,7.02393,21.9668,4.71338z"/><path d="M16,11.40771c0.82813,0,1.5-0.67139,1.5-1.5V2c0-0.82861-0.67188-1.5-1.5-1.5S14.5,1.17139,14.5,2v7.90771C14.5,10.73633,15.17188,11.40771,16,11.40771z"/></svg>