<svg xmlns="http://www.w3.org/2000/svg" viewBox="0 0 64 64"><rect width="42" height="52" x="11" y="9" fill="#c69c6d"/><polygon fill="#f2f2f2" points="49 13 49 49 41 57 15 57 15 13 49 13"/><polygon fill="#d3d2d1" points="41 57 41 49 49 49 41 57"/><path fill="#c33" d="M20,36.016a13.059,13.059,0,0,1-.373-9.026l3.892.987a9.011,9.011,0,0,0,0,6.045Z"/><path fill="#e29d13" d="M26,37.707A9,9,0,0,0,40.5,28.03L44.373,27A13,13,0,0,1,22.991,40.372Z"/><path fill="#028443" d="M25.158,25.158a8.991,8.991,0,0,1,13.684,0l2.837-2.837a13,13,0,0,0-19.358,0Z"/><path fill="#009d54" d="M37,32V27a1,1,0,0,0-2,0v5H33V29a1,1,0,0,0-2,0v3H29V30a1,1,0,0,0-2,0v2a1,1,0,0,0,0,2H37a1,1,0,0,0,0-2Z"/><path fill="#c1c1c1" d="M23 50H19a1 1 0 010-2h4a1 1 0 010 2zM25 54H19a1 1 0 010-2h6a1 1 0 010 2zM37 50H27a1 1 0 010-2H37a1 1 0 010 2zM37 54H29a1 1 0 010-2h8a1 1 0 010 2z"/><path fill="#e0e0e0" d="M36,9a1,1,0,0,1-1-1V4H29V8a1,1,0,0,1-2,0V4a2,2,0,0,1,2-2h6a2,2,0,0,1,2,2V8A1,1,0,0,1,36,9Z"/><path fill="#e0e0e0" d="M41,8v4a2.066,2.066,0,0,1-2.12,2H25.12a2.142,2.142,0,0,1-1.95-1.21v-.01A1.853,1.853,0,0,1,23,12V8Z"/><path fill="#eae9e8" d="M40,8v3a2.066,2.066,0,0,1-2.12,2H24.12a2.281,2.281,0,0,1-.95-.21v-.01A1.853,1.853,0,0,1,23,12V8Z"/><rect width="2" height="1" x="27" y="7" fill="#d1d0cf"/><rect width="2" height="1" x="35" y="7" fill="#d1d0cf"/><rect width="1" height="44" x="15" y="13" fill="#e0e0e0"/><rect width="1" height="36" x="48" y="13" fill="#e0e0e0"/><rect width="25" height="1" x="16" y="56" fill="#e0e0e0"/><path d="M53,8H42a1,1,0,0,0-1-1H37V4a2,2,0,0,0-2-2H29a2,2,0,0,0-2,2V7H23a1,1,0,0,0-1,1H11a1,1,0,0,0-1,1V61a1,1,0,0,0,1,1H53a1,1,0,0,0,1-1V9A1,1,0,0,0,53,8ZM29,4h6V7H29ZM24,9H40v3a1,1,0,0,1-1,1H25a1,1,0,0,1-1-1Zm-1.22,5A2.985,2.985,0,0,0,25,15H39a2.985,2.985,0,0,0,2.22-1H48V48H41a1,1,0,0,0-1,1v7H16V14ZM46.586,50,42,54.586V50ZM52,60H12V10H22v2H15a1,1,0,0,0-1,1V57a1,1,0,0,0,1,1H41a1.009,1.009,0,0,0,.707-.293l8-8A1.009,1.009,0,0,0,50,49V13a1,1,0,0,0-1-1H42V10H52Z"/><path d="M19.679 36.962a.979.979 0 00.324.054 1 1 0 00.493-.13l3.519-1.993a1 1 0 00.448-1.207 8.026 8.026 0 010-5.373 1 1 0 00-.7-1.3l-3.892-.987a1 1 0 00-1.2.661 14.052 14.052 0 00.4 9.72A1 1 0 0019.679 36.962zm.65-8.763l1.94.492a10.042 10.042 0 00.06 4.858l-1.791 1.015a12.08 12.08 0 01-.209-6.365zM39.613 27.563a1 1 0 00-.06.8 8 8 0 01-12.882 8.6 1 1 0 00-1.33 0l-3.013 2.665a1 1 0 00-.03 1.47 14 14 0 0023.026-14.4 1 1 0 00-1.209-.659l-3.876 1.032A1 1 0 0039.613 27.563zm4.063.656A12 12 0 0124.5 40.37l1.528-1.351A10 10 0 0041.741 28.734zM24.451 25.865a.979.979 0 00.746.292 1 1 0 00.721-.349 7.99 7.99 0 0112.164 0 1 1 0 00.721.349h.039a1 1 0 00.707-.293l2.837-2.838a1 1 0 00.037-1.375 14 14 0 00-20.846 0 1 1 0 00.037 1.375zM32 19a12.017 12.017 0 018.275 3.311l-1.417 1.417a9.984 9.984 0 00-13.716 0l-1.417-1.417A12.017 12.017 0 0132 19z"/><path d="M28 29a1 1 0 00-1 1v2a1 1 0 000 2H37a1 1 0 000-2V27a1 1 0 00-2 0v5H33V29a1 1 0 00-2 0v3H29V30A1 1 0 0028 29zM19 50h4a1 1 0 000-2H19a1 1 0 000 2zM19 54h6a1 1 0 000-2H19a1 1 0 000 2zM37 48H27a1 1 0 000 2H37a1 1 0 000-2zM37 52H29a1 1 0 000 2h8a1 1 0 000-2z"/></svg>